<?xml version="1.0" encoding="utf-8"?>
<!-- Generator: Adobe Illustrator 27.5.0, SVG Export Plug-In . SVG Version: 6.00 Build 0)  -->
<svg version="1.1" id="Layer_1" xmlns="http://www.w3.org/2000/svg" xmlns:xlink="http://www.w3.org/1999/xlink" x="0px" y="0px"
	 viewBox="0 0 294 215" style="enable-background:new 0 0 294 215;" xml:space="preserve">
<style type="text/css">
	.st0{fill:#FFFFFF;}
</style>
<g>
	<path class="st0" d="M146.2,93.6c1.1-2,1.6-3.8,1.7-5.1c0-1.4-0.4-2.4-1.4-3.1c-1.9-1.4-5.8-1.6-11.7-0.8
		c-5.3,0.8-10.5,1.5-15.6,2.3c-2.8,4.8-5.7,9.6-8.6,14.6c-3,5.1-6,10.2-9.1,15.5c4.2-0.2,8.5-0.5,13-0.7c0.9-1.6,1.8-3.3,2.7-4.9
		c0.9-1.6,1.8-3.2,2.7-4.8c1.4-0.1,2.9-0.2,4.3-0.4c5.4-0.5,9.9-1.7,13.4-3.7c1.8-1,3.4-2.3,4.8-3.8
		C143.9,97.2,145.2,95.5,146.2,93.6z M132.3,95.1c-0.5,0.8-1.1,1.5-2.1,2c-1,0.5-2.1,0.9-3.4,1c-0.7,0.1-1.4,0.2-2.1,0.2
		c1-1.7,1.9-3.4,2.9-5.1c0.7-0.1,1.4-0.2,2.1-0.3c1.3-0.2,2.2-0.1,2.6,0.3C132.8,93.7,132.8,94.3,132.3,95.1z"/>
	<path class="st0" d="M156.9,113.9c0.9-1.8,1.8-3.7,2.6-5.5c0.9-1.8,1.8-3.6,2.6-5.4c1.8-0.2,3.7-0.3,5.5-0.5
		c6.9-0.6,12.6-2,16.8-4.4c2.1-1.2,4-2.6,5.6-4.3c1.6-1.7,2.8-3.6,3.8-5.8c1-2.3,1.4-4.2,1.2-5.7c-0.2-1.5-1-2.6-2.4-3.4
		c-2.8-1.5-7.9-1.7-15.3-0.6c-6.8,1-13.3,1.9-19.6,2.8c-2.7,5.3-5.6,10.7-8.4,16.2c-2.9,5.6-5.9,11.4-9,17.3
		C145.6,114.5,151.1,114.2,156.9,113.9z M169.4,88.1c0.9-0.1,1.8-0.2,2.7-0.3c1.6-0.2,2.8-0.1,3.5,0.3c0.7,0.4,0.8,1.1,0.4,2
		c-0.4,0.9-1.2,1.7-2.4,2.3c-1.1,0.6-2.6,1-4.2,1.2c-0.9,0.1-1.8,0.2-2.7,0.3C167.6,91.9,168.5,90,169.4,88.1z"/>
	<path class="st0" d="M176.9,118c-3.7-0.5-7.6-0.5-11.5-0.1c-3.9,0.4-7.8,1.2-11.4,2.4c-3.4,1.1-6.4,2.6-8.8,4.2
		c-7.2,4.9-7.2,10.9,0.1,14.4c2.4,1.1,5.4,2,8.8,2.4c3.6,0.5,7.6,0.5,11.4,0.1c3.9-0.4,7.8-1.2,11.4-2.4c4.2-1.4,9.3-3.7,12.2-7.1
		c2.7-3.2,2.7-6.5,0-9.2C186.2,119.9,181.1,118.6,176.9,118z M160.3,122.8l6.4,7.1l-5,3.9l-9.5-10.5L160.3,122.8z M156.1,138.2h-7.8
		l9.7-7.4l3.2,3.6L156.1,138.2z M169.6,138.8h-9.4l11.7-9l3.9,4.3L169.6,138.8z M176.3,133.6L164.9,121l9.8-0.6l7.7,8.6L176.3,133.6
		z"/>
	<path class="st0" d="M244.8,87.7c-1.8-6.4-3.4-12.5-5-18.3c-8.5,1.2-16.8,2.4-24.7,3.6c-6,6.5-11.9,13-17.9,19.6
		c-6.1,6.7-12.2,13.4-18.3,20.1c7.1-0.4,14.6-0.8,22.3-1.2c1.3-1.8,2.7-3.6,4-5.4c5.6-0.4,11.4-0.8,17.4-1.2c0,1.8,0.1,3.5,0.1,5.3
		c8.9-0.5,18.2-1,28-1.5C248.6,101.4,246.7,94.4,244.8,87.7z M222.2,95.3c-3.2,0.3-6.4,0.6-9.5,0.8l9.5-13.5c0.1,0,0.2,0,0.4,0
		L222.2,95.3z"/>
	<path class="st0" d="M187,57.7C130.6,66.5,86.3,93.9,88.1,119c1.8,25,49,38.2,105.3,29.4c3.6-0.6,7.2-1.2,10.7-1.9
		c0.3,0.3,0.6,0.6,0.9,0.9c1.2,1,2.7,2,4.5,2.9c3.6,1.7,8.1,3,13.4,3.6c5.5,0.7,11.5,0.7,17.4,0.1c5.9-0.6,11.8-1.8,17.4-3.6
		c6.4-2.1,14.1-5.6,18.4-10.8c4.1-4.8,4.1-9.9-0.1-13.9c-2-1.9-4.6-3.3-7.5-4.4c2.5-1.7,4.9-3.5,7.1-5.3
		c11.1-9.2,17.2-19.2,16.5-28.9C290.5,62.1,243.3,48.9,187,57.7z M229.9,133.1c-0.1,1-0.6,2-1.3,2.9h0c-0.2,0.3-0.5,0.6-0.8,0.8
		c-0.9,0.8-1.9,1.5-3,1.9l1.6,2.9l2.8,5l-6.8,0.3l-1.7-3.5l-0.4-0.9l-0.9-1.8c-0.1-0.1-0.2-0.2-0.3-0.2c-0.4-0.1-1-0.1-1.2,0.1
		c-0.4,0.3-0.3,0.6-0.3,0.9c-0.2,1-0.5,2-0.7,3c-0.2,0.9-0.5,1.9-0.7,2.8c-1.3,0.1-2.7,0.2-4,0.3c-0.1,0-0.2,0.1-0.2,0.1
		c-0.6,0-1.2,0-1.8,0l0.4-1.6l0.3-1.1l1.7-7.7l0.5-2.3l1.4-6.1c0.2-0.3,12.6-1.4,14.7,1.4C229.9,131,230.1,131.9,229.9,133.1z
		 M222.9,122.1c-5.2,1.7-9.8,3.9-13.3,6.3c-4.8,3.3-7.5,6.8-8.1,10.2l-0.6,0.2l-0.3,0.1l-1.2,0.3l-1.2,0.3l-1.2,0.3l-1.2,0.3
		l-1.2,0.3l-1.2,0.3l-1.2,0.3l-1.2,0.3l-1.2,0.3l-1.2,0.2l-1.2,0.2l-1.2,0.2l-1.2,0.2l-1.2,0.2l-1.2,0.2l-1.2,0.2l-1.2,0.2l-1.2,0.2
		l-1.2,0.2l-1.2,0.2l-1.2,0.2l-1.2,0.2l-1.2,0.1l-1.2,0.1l-1.2,0.1l-1.2,0.1l-1.2,0.1l-1.2,0.1l-1.2,0.1l-1.2,0.1l-1.2,0.1l-1.2,0.1
		l-1.2,0.1l-1.2,0.1l-1.2,0l-1.2,0l-1.2,0l-1.2,0l-1.2,0l-1.2,0l-1.2,0l-1.2,0l-1.2,0l-1.2,0l-1.2,0l-1.2-0.1l-1.2-0.1l-1.1-0.1
		l-1.1-0.1l-1.1-0.1l-1.1-0.1l-1.1-0.1l-1-0.1l-1-0.1l-1-0.1l-1-0.1l-1-0.1l-1-0.1l-1-0.2l-1-0.2l-1-0.2l-1-0.2l-0.9-0.2l-0.9-0.2
		l-0.9-0.2l-0.9-0.2l-0.9-0.2l-0.9-0.2l-0.9-0.2l-0.9-0.2l-0.9-0.2l-0.8-0.3l-0.8-0.3l-0.8-0.3l-0.8-0.3l-0.8-0.3l-0.8-0.3l-0.8-0.3
		l-0.8-0.3l-2.3-1l-2.1-1l-2-1.1l-1.8-1.1l-1.7-1.2l-1.5-1.2l-1.4-1.3l-1.3-1.3l-1.1-1.4l-1-1.4l-0.8-1.4l-0.7-1.5l-0.5-1.5
		l-0.4-1.5l-0.3-1.6l-0.1-1.6l0-1.6l0.2-1.6l0.3-1.7l0.4-1.7l0.6-1.7l0.7-1.7l0.9-1.7l1-1.7l1.2-1.7l1.3-1.7l1.4-1.7l1.6-1.7
		l1.7-1.7l1.9-1.7l2-1.7l2.2-1.7l0.7-0.6l0.7-0.5l0.8-0.5l0.8-0.5l0.8-0.5l0.8-0.5l0.8-0.5l0.8-0.5l0.8-0.5l0.8-0.5l0.9-0.5l0.9-0.5
		l0.9-0.5l0.9-0.5l0.9-0.5l0.9-0.5l0.9-0.5l0.9-0.5l0.9-0.5l1-0.5l1-0.5l1-0.5l1-0.5l1-0.5l1-0.5l1-0.5l1-0.5l1-0.5l1-0.4l1.1-0.4
		l1.1-0.4l1.1-0.4l1.1-0.4l1.1-0.4l1.2-0.4l1.2-0.4l1.2-0.4l1.2-0.4l1.2-0.4l1.2-0.4l1.2-0.4l1.2-0.4l1.2-0.4l1.2-0.4l1.2-0.4
		l1.2-0.4l1.2-0.3l1.2-0.3l1.2-0.3l1.2-0.3l1.2-0.3l1.2-0.3l1.2-0.3l1.2-0.3l1.2-0.3l1.2-0.3l1.2-0.3l1.2-0.3l1.2-0.3l1.2-0.2
		l1.2-0.2l1.2-0.2l1.2-0.2l1.2-0.2l1.2-0.2l1.2-0.2l1.2-0.2l1.2-0.2l1.2-0.2l1.2-0.2l1.2-0.2l1.2-0.1l1.2-0.1l1.2-0.1l1.2-0.1
		l1.2-0.1l1.2-0.1l1.2-0.1l1.2-0.1l1.2-0.1l1.2-0.1l1.2-0.1l1.2-0.1l1.2,0l1.2,0l1.2,0l1.2,0l1.2,0l1.2,0l1.2,0l1.2,0l1.2,0l1.2,0
		l1.2,0l1.2,0.1l1.2,0.1l1.3,0.1l1.4,0.1l1.4,0.1l1.4,0.1l1.4,0.2l1.4,0.2l1.4,0.2l1.4,0.2l1.4,0.2l1.4,0.2l1.4,0.3l1.4,0.3l1.4,0.3
		l1.4,0.3l1.4,0.3l1.4,0.4l1.4,0.4l1.4,0.4l1.3,0.4l1.3,0.5l1.3,0.5l1.3,0.5l1.3,0.5l1.2,0.6l1.2,0.6l1.2,0.6l1.1,0.7l1.1,0.7
		l1.1,0.7l1,0.7l1,0.8l1,0.8l0.9,0.8l0.8,0.8l0.8,0.8l0.7,0.8l0.7,0.8l0.6,0.9l0.5,0.9l0.5,0.9l0.4,0.9l0.4,0.9l0.3,0.9l0.3,0.9
		l0.2,0.9l0.2,1l0.1,1l0.1,1l0,1l0,1l-0.1,1l-0.2,1l-0.2,1l-0.3,1l-0.3,1l-0.4,1l-0.4,1l-0.5,1l-0.5,1.1l-0.6,1.1l-0.6,1.1l-0.7,1.1
		l-0.8,1.1l-0.8,1.1l-0.9,1.1l-0.9,1.1l-1,1.1l-1,1.1l-1.1,1l-1.1,1l-1,0.9l-0.1,0.1l-1.2,1l-1.2,1l-1.2,1l-1.2,0.9l-1.3,0.9
		l-0.4,0.3c-2.3,0-4.7,0.2-7,0.4C234.4,119.1,228.4,120.3,222.9,122.1z M240.5,134.4c0.9,0,2.9-0.2,4-0.2c0.3,0,0.6,0,0.9,0
		c0.2,0,0.4,0,0.6,0c0.2,0,0.9-0.1,0.9,0.1c0,0.2-0.8,3.8-1,3.9l-6.5,0.5c-0.2,0.2-0.9,3.1-0.8,3.2c0.1,0.1,0.2,0.1,0.4,0.1l6.6-0.2
		l-0.9,4l-13.2,0.8l1.7-7.2l0.2-0.8l2.5-10.7l3.4-0.2l9.8-0.6c-0.1,0.2-0.1,0.5-0.2,1c-0.2,1.2-0.6,2.9-0.8,3l-2.8,0.2l-4.2,0.3
		c-0.3,0.1-0.6,2-0.7,2.5C240.4,134.2,240.3,134.4,240.5,134.4z M265,142.4c-4.1,3-9.6,3.1-14.6,3.2c-0.6,0-1.1,0-1.7,0l0-0.3
		l3.4-14.6l0,0l0.7-2.9l0.2-0.8c0.1-0.2,0.9-0.3,1.2-0.3c0.1,0,0.2,0,0.2,0c1.4-0.1,2.9-0.2,4.4-0.2c0.1,0,0.3,0,0.4,0
		c0.3,0,0.5,0,0.8,0c1.1,0,2.4-0.1,3.5,0C273.5,127,270.8,138.2,265,142.4z"/>
	<path class="st0" d="M64,61.1c2.4,1.1,5.4,2,8.8,2.4c3.6,0.5,7.6,0.5,11.4,0.1c3.9-0.4,7.8-1.2,11.4-2.4c1.9-0.6,4-1.4,5.9-2.5
		l22.5,13.3c1-0.5,2-0.9,3-1.4l-22.8-13.5c1.4-0.9,2.6-1.9,3.6-3.1c2.7-3.2,2.7-6.5,0-9.1c-2.9-2.8-8-4.1-12.2-4.7
		c-3.6-0.5-7.6-0.5-11.4-0.1c-3.9,0.4-7.8,1.2-11.4,2.4c-3.4,1.1-6.4,2.6-8.8,4.1C56.7,51.7,56.8,57.6,64,61.1z M88.3,61.1h-9.4
		l11.7-9l3.9,4.3L88.3,61.1z M93.4,42.7l7.7,8.6l-6.1,4.7L83.6,43.3L93.4,42.7z M79,45.2l6.4,7.1l-5,3.9L71,45.7L79,45.2z
		 M76.6,53.1l3.2,3.6l-5,3.9H67L76.6,53.1z"/>
	<path class="st0" d="M52.6,120.4l31.5-0.6c0-0.9,0-1.8,0-2.7l-31.7,0.6c-0.3-1-0.9-1.9-1.8-2.8c-2.9-2.8-8-4.1-12.2-4.7
		c-3.6-0.5-7.6-0.5-11.4-0.1s-7.8,1.2-11.4,2.4c-3.4,1.1-6.4,2.6-8.8,4.1c-7.2,4.9-7.2,10.9,0.1,14.4c2.4,1.1,5.4,2,8.8,2.4
		c3.6,0.5,7.6,0.5,11.4,0.1c3.9-0.4,7.8-1.2,11.4-2.4c4.2-1.4,9.3-3.7,12.2-7.1C51.7,122.9,52.4,121.7,52.6,120.4z M21.9,115.1
		l6.4,7.1l-5,3.9l-9.5-10.5L21.9,115.1z M17.6,130.4H9.8l9.6-7.4l3.2,3.6L17.6,130.4z M31.2,131.1h-9.4l11.7-9l3.9,4.3L31.2,131.1z
		 M37.9,125.9l-11.4-12.6l9.8-0.6l7.7,8.6L37.9,125.9z"/>
	<path class="st0" d="M144,22.7c2.4,1.1,5.4,2,8.8,2.4c3.6,0.5,7.6,0.5,11.4,0.1c0.3,0,0.6-0.1,1-0.1l5.2,31.6
		c0.9-0.2,1.8-0.4,2.7-0.6l-5.2-31.4c2.7-0.4,5.3-1,7.8-1.9c4.2-1.4,9.3-3.7,12.2-7.1c2.7-3.2,2.7-6.5,0-9.1
		c-2.9-2.8-8-4.1-12.2-4.7c-3.6-0.5-7.6-0.5-11.4-0.1c-3.9,0.4-7.8,1.2-11.4,2.4c-3.4,1.1-6.4,2.6-8.8,4.1
		C136.7,13.2,136.7,19.2,144,22.7z M168.3,22.7h-9.4l11.7-9l3.9,4.3L168.3,22.7z M173.4,4.2l7.7,8.6l-6.1,4.7L163.6,4.8L173.4,4.2z
		 M159,6.7l6.4,7.1l-5,3.9L151,7.2L159,6.7z M156.6,14.6l3.2,3.6l-5,3.9h-7.8L156.6,14.6z"/>
	<path class="st0" d="M205.4,189.9c-3.6-0.5-7.6-0.5-11.4-0.1c-0.1,0-0.1,0-0.2,0l-4.5-36.7c-0.9,0.1-1.8,0.2-2.7,0.4l4.5,36.7
		c-2.9,0.4-5.8,1.1-8.6,2c-3.4,1.1-6.4,2.6-8.8,4.1c-7.2,4.9-7.2,10.9,0.1,14.4c2.4,1.1,5.4,2,8.8,2.4c3.6,0.5,7.6,0.5,11.4,0.1
		c3.9-0.4,7.8-1.2,11.4-2.4c4.2-1.4,9.3-3.7,12.2-7.1c2.7-3.2,2.7-6.5,0-9.1C214.7,191.8,209.6,190.5,205.4,189.9z M188.8,194.8
		l6.4,7.1l-5,3.9l-9.5-10.5L188.8,194.8z M184.5,210.1h-7.8l9.6-7.4l3.2,3.6L184.5,210.1z M198,210.7h-9.4l11.7-9l3.9,4.3L198,210.7
		z M204.8,205.6l-11.4-12.6l9.8-0.6l7.7,8.6L204.8,205.6z"/>
	<path class="st0" d="M117.4,151.3l-23.1,18.9c-2.3-0.8-4.8-1.4-7.1-1.7c-3.6-0.5-7.6-0.5-11.4-0.1c-3.9,0.4-7.8,1.2-11.4,2.4
		c-3.4,1.1-6.4,2.6-8.8,4.1c-7.2,4.9-7.2,10.9,0.1,14.4c2.4,1.1,5.4,2,8.8,2.4c3.6,0.5,7.6,0.5,11.4,0.1c3.9-0.4,7.8-1.2,11.4-2.4
		c4.2-1.4,9.3-3.7,12.2-7.1c2.7-3.2,2.7-6.5,0-9.1c-0.7-0.7-1.5-1.2-2.4-1.7l23.7-19.4C119.7,151.8,118.5,151.5,117.4,151.3z
		 M70.7,173.3l6.4,7.1l-5,3.9l-9.5-10.5L70.7,173.3z M66.4,188.6h-7.8l9.6-7.4l3.2,3.6L66.4,188.6z M80,189.3h-9.4l11.7-9l3.9,4.3
		L80,189.3z M86.7,184.1l-11.4-12.6l9.8-0.6l7.7,8.6L86.7,184.1z"/>
	<path class="st0" d="M220.4,132.3c-0.4,0.1-0.6,0.2-0.7,0.6c-0.2,0.4-0.8,3.1-0.8,3.4c0,0.5,1.5,0.2,1.9,0.1
		c1.5-0.3,3.2-1.4,2.8-3.2C223.3,132.2,221.2,132.2,220.4,132.3z"/>
	<path class="st0" d="M261.3,130.6c-0.2,0-0.4-0.1-0.6-0.1c-0.4,0-1.6,0-2.2,0.1c-0.1,0-0.1,0-0.2,0c0,0,0,0,0,0
		c-0.1,0-0.1,0.1-0.2,0.1c0,0,0,0,0,0c0,0,0,0,0,0c-0.6,1.8-1,3.7-1.4,5.5c-0.1,0.6-0.3,1.3-0.4,1.9c-0.2,0.7-0.3,1.4-0.5,2.1
		c0,0.1-0.1,0.2-0.2,0.4c0,0,0,0,0,0c0,0,0,0,0,0.1c0,0,0,0.1,0,0.1c0,0.1,0,0.1,0,0.2c0,0,0,0,0,0l0,0c0,0,0,0,0,0
		c0.1,0,0.3,0,0.5,0c0.3,0,0.7,0,1,0c0.1,0,0.2,0,0.2-0.1c0,0,0.1,0,0.1,0c1.6-0.2,2.9-0.7,3.9-1.5c0.5-0.4,0.9-0.9,1.3-1.5
		c0.4-0.6,0.6-1.3,0.9-2.1c0.3-1.2,0.5-2.3,0.3-3.2C263.5,131.6,262.8,130.9,261.3,130.6z"/>
	<path class="st0" d="M246.7,29.1c2.4,1.1,5.4,2,8.8,2.4c1.3,0.2,2.7,0.3,4.1,0.3L243.5,52c1.1,0.1,2.2,0.1,3.2,0.2L263,31.8
		c1.3,0,2.6-0.1,3.9-0.2c3.9-0.4,7.8-1.2,11.4-2.4c4.2-1.4,9.3-3.7,12.2-7.1c2.7-3.2,2.7-6.5,0-9.1c-2.9-2.8-8-4.1-12.2-4.7
		c-3.6-0.5-7.6-0.5-11.4-0.1s-7.8,1.2-11.4,2.4c-3.4,1.1-6.4,2.6-8.8,4.1C239.4,19.7,239.5,25.6,246.7,29.1z M271,29.1h-9.4l11.7-9
		l3.9,4.3L271,29.1z M276.1,10.7l7.7,8.6l-6.1,4.7l-11.4-12.6L276.1,10.7z M261.7,13.2l6.4,7.1l-5,3.9l-9.5-10.5L261.7,13.2z
		 M259.3,21.1l3.2,3.6l-5,3.9h-7.8L259.3,21.1z"/>
</g>
<g>
</g>
<g>
</g>
<g>
</g>
<g>
</g>
<g>
</g>
<g>
</g>
</svg>
