<?xml version="1.0" encoding="utf-8"?>
<!-- Generator: Adobe Illustrator 27.5.0, SVG Export Plug-In . SVG Version: 6.00 Build 0)  -->
<svg version="1.1" id="Layer_1" xmlns="http://www.w3.org/2000/svg" xmlns:xlink="http://www.w3.org/1999/xlink" x="0px" y="0px"
	 viewBox="0 0 110 110" style="enable-background:new 0 0 110 110;" xml:space="preserve">
<style type="text/css">
	.st0{fill:#FD3C00;}
</style>
<g>
	<path class="st0" d="M78.5,97.1H31.9c-3.6-0.7-6.4-3.3-6.9-7l0-35.3c0.4-3.9,3.9-7.2,7.9-7c0.5-8.6-1.8-17.8,3-25.4
		c5.2-8.2,13.3-9.9,22.5-9.4c9.8,0.6,18,8.3,18.9,18.1l0,16.4c0.1,0.4,0.9,0.2,1.3,0.3c3.4,0.7,5.7,3.1,6.3,6.5l0,35.7
		C84.7,93.3,81.8,96.6,78.5,97.1z M73.4,47.8c-0.6-9.6,2.5-20-5.8-27.1c-6-5-18.2-5-24.3-0.4c-2.8,2.1-6.3,7-6.3,10.6v16.8h3.9V32.2
		c0-3.4,2.9-7.5,5.7-9.2c4.3-2.6,13.1-2.6,17.3,0.2c2.5,1.7,5.4,5.6,5.4,8.7v16H73.4z M65.2,47.8V31.7c0-1.6-2.1-4.4-3.5-5.2
		c-2.9-1.8-10.1-1.9-13-0.1c-1.6,1-3.7,3.7-3.7,5.6v15.8H65.2z M32,52c-2.2,0.6-2.9,2-3.1,4.1c-0.8,10.5,0.6,21.9,0,32.5
		c0.1,2.1,1.3,4.1,3.5,4.3h45.1c2.3-0.2,3.5-2.2,3.5-4.3c-0.6-10.6,0.8-22,0-32.5c-0.2-2.3-1.1-3.9-3.5-4.2L32,52z"/>
	<path class="st0" d="M48.9,73.6c-0.5-0.6-1.2-1.1-1.7-1.9c-4.8-7.6,2.4-16.8,10.9-14.1c7.1,2.2,8.6,11.6,3.2,16.4
		c-0.3,3.6,0.3,7.6,0,11.2c-0.1,1.2-0.6,2.2-1.9,2.4c-1.8,0.2-6.4,0.2-8.2,0c-1.1-0.1-1.9-0.8-2-1.9C48.9,83.8,49.5,74.3,48.9,73.6z
		 M57.1,83.4V72.4c0-0.6,1.7-1.8,2.1-2.3c3.7-4.5-1.4-10.9-6.6-8.3c-2.8,1.4-3.8,5.4-1.9,7.9c0.4,0.6,2.3,1.9,2.3,2.5v11.2H57.1z"/>
</g>
<g>
</g>
<g>
</g>
<g>
</g>
<g>
</g>
<g>
</g>
<g>
</g>
</svg>
