<?xml version="1.0" encoding="utf-8"?>
<!-- Generator: Adobe Illustrator 27.5.0, SVG Export Plug-In . SVG Version: 6.00 Build 0)  -->
<svg version="1.1" id="Layer_1" xmlns="http://www.w3.org/2000/svg" xmlns:xlink="http://www.w3.org/1999/xlink" x="0px" y="0px"
	 viewBox="0 0 110 110" style="enable-background:new 0 0 110 110;" xml:space="preserve">
<style type="text/css">
	.st0{fill:#FD3C00;}
</style>
<g>
	<path class="st0" d="M52.4,12.5c1.7-1.7,4.8-1.2,5.9,1c0.7,1.4,0,3.5,0.4,5c7.9,0.8,15.6,3.9,21.7,9c1.4-1.2,2.8-3.5,4.8-3.7
		c1.8-0.2,3.6,1,4,2.8c0.6,2.8-2,4.2-3.6,6c4.8,5.8,8.1,12.9,9.1,20.4c3.6,26.9-20,49.6-46.7,44.9C25.8,94,11.1,72.2,15.8,50.1
		c3.6-17,18.2-30,35.5-31.5C51.7,16.5,50.7,14.2,52.4,12.5z M30.9,80.6c16.6,18.1,46.6,12.1,54.9-10.9c9.1-24.9-13.6-49.7-39.2-43
		C22.9,33,14.2,62.5,30.9,80.6z"/>
	<path class="st0" d="M54.5,34.9c2.3-0.3,4.1,1.4,4.1,3.6c0.2,5.4-0.3,11.1,0,16.5c3.5,4-0.6,9.9-5.5,8c-3.2-1.2-4.1-5.4-1.8-8
		l0.1-17.3C51.8,36.3,53,35.1,54.5,34.9z"/>
</g>
<g>
</g>
<g>
</g>
<g>
</g>
<g>
</g>
<g>
</g>
<g>
</g>
</svg>
