<?xml version="1.0" encoding="utf-8"?>
<!-- Generator: Adobe Illustrator 27.5.0, SVG Export Plug-In . SVG Version: 6.00 Build 0)  -->
<svg version="1.1" id="Layer_1" xmlns="http://www.w3.org/2000/svg" xmlns:xlink="http://www.w3.org/1999/xlink" x="0px" y="0px"
	 viewBox="0 0 110 110" style="enable-background:new 0 0 110 110;" xml:space="preserve">
<style type="text/css">
	.st0{fill:#FD3C00;}
</style>
<g>
	<path class="st0" d="M51.7,48c10.2-1,12.6,14,2.8,16.4C42.9,67.2,40,49.1,51.7,48z M50.5,58.3c2.7,2.6,6.6-1.5,3.9-4
		C51.8,51.8,47.9,55.7,50.5,58.3z"/>
	<path class="st0" d="M23.1,70c-2.5-2.5,1.2-6.5,3.9-4C29.8,68.4,25.9,72.7,23.1,70z"/>
	<path class="st0" d="M42.9,66c2.6,2.6-1.4,6.6-4,3.9C36.4,67.3,40.4,63.5,42.9,66z"/>
	<g>
		<path class="st0" d="M75.9,6.9c13.6,0.9,25.6,11.1,28.2,24.5c0.3,1.6,0.9,5.4,0.6,6.8c-0.6,2.7-4.6,2.9-5.4,0.3
			c-0.4-1.4-0.3-3.9-0.6-5.6c-1.9-10.5-10.9-18.8-21.5-20.2c-2.1-0.3-5.4,0.3-6-2.4c-0.3-1.6,0.7-2.8,2-3.4
			C74.2,7,75.1,6.9,75.9,6.9z"/>
		<path class="st0" d="M73.5,18.1c4.1-0.8,10.8,2.3,13.8,5.1c3.5,3.2,6.9,9.9,6.3,14.7c-0.4,3.2-5,3.3-5.5,0.3c-0.1-0.6,0-1.1,0-1.6
			c-1.1-7.4-5.4-11.8-12.8-12.9c-0.6-0.1-1.2,0.1-1.8-0.1C70.6,23.1,70.6,18.7,73.5,18.1z"/>
		<path class="st0" d="M73.5,29.3c1.5-0.3,4,0.6,5.2,1.4c2,1.3,3.5,3.9,3.7,6.3c0.3,4.1-4.7,4.4-5.5,1.4c-0.2-1,0-2-0.9-2.8
			c-1.1-1.1-3-0.4-4.1-1.7C70.6,32.3,71.4,29.7,73.5,29.3z"/>
		<g>
			<path class="st0" d="M5.4,76.6c0.4-5.4,2.5-10.4,6-14.5l31.9-31.9c3.5-2.9,7.8-2.7,11.2,0.2c8.3,7.1,15.8,16.8,24.1,24.1
				c2.8,3,3,7.7,0.4,11l-32,32C30.8,111.2,5.2,97.6,5.2,80.6C5.2,78.7,5.2,79.5,5.4,76.6z M48.7,33.7c-0.6,0-1.4,0.4-1.8,0.8
				L16.2,65.1c-16.3,19,8.7,43.9,27.6,27.6l30.6-30.6c1.2-1.6,1.1-2.7-0.1-4.2L51,34.6C50.4,34.1,49.5,33.6,48.7,33.7z"/>
			<path class="st0" d="M42.9,85.8c-2.5,2.5-6.5-1.3-4-3.9C41.5,79.2,45.5,83.2,42.9,85.8z"/>
			<path class="st0" d="M24.5,81.1c3.4-0.6,4.7,3.9,1.8,5.2C22.4,88.1,20.8,81.7,24.5,81.1z"/>
		</g>
	</g>
	<path class="st0" d="M50.7,73.8c2.7,2.5-1.2,6.6-3.8,4.1C44.2,75.4,48.1,71.4,50.7,73.8z"/>
	<path class="st0" d="M35.1,58.2c2.4,2.5-1.3,6.3-3.9,4C28.3,59.7,32.5,55.4,35.1,58.2z"/>
	<path class="st0" d="M33,73.1c3.5,0,3.6,5,0.7,5.5C29.3,79.4,29.2,73.1,33,73.1z"/>
</g>
<g>
</g>
<g>
</g>
<g>
</g>
<g>
</g>
<g>
</g>
<g>
</g>
</svg>
