<?xml version="1.0" encoding="utf-8"?>
<!-- Generator: Adobe Illustrator 27.5.0, SVG Export Plug-In . SVG Version: 6.00 Build 0)  -->
<svg version="1.1" xmlns="http://www.w3.org/2000/svg" xmlns:xlink="http://www.w3.org/1999/xlink" x="0px" y="0px"
	 viewBox="0 0 76 76" style="enable-background:new 0 0 76 76;" xml:space="preserve">
<style type="text/css">
	.st0{fill:#F37228;}
	.st1{fill:#FFFFFF;}
</style>
<g id="background">
</g>
<g id="Objects">
	<g>
		<circle class="st0" cx="38" cy="38" r="37.5"/>
		<path class="st1" d="M38,70.7c-8.7,0-16.9-3.4-23.1-9.6C8.7,54.9,5.3,46.7,5.3,38c0-8.7,3.4-16.9,9.6-23.1
			C21.1,8.7,29.3,5.3,38,5.3s16.9,3.4,23.1,9.6c6.2,6.2,9.6,14.4,9.6,23.1c0,8.7-3.4,16.9-9.6,23.1C54.9,67.3,46.7,70.7,38,70.7z
			 M38,8C21.5,8,8,21.5,8,38s13.4,30,30,30s30-13.4,30-30S54.5,8,38,8z"/>
		<circle class="st1" cx="38" cy="26" r="8.7"/>
		<path class="st1" d="M47,58.7H29c-3.4,0-6.1-2.7-6.1-6.1v0c0-8.3,6.8-15.1,15.1-15.1h0c8.3,0,15.1,6.8,15.1,15.1v0
			C53.1,56,50.4,58.7,47,58.7z"/>
	</g>
	<g>
	</g>
	<g>
	</g>
	<g>
	</g>
	<g>
	</g>
	<g>
	</g>
	<g>
	</g>
</g>
</svg>
